HIERARCHY
ROOT pelvis
{
	OFFSET 0.003123 -0.351407 0.012037
	CHANNELS 6 Xposition Yposition Zposition Zrotation Yrotation Xrotation 
	JOINT left_hip
	{
		OFFSET 0.058189 -0.092763 -0.026001
		CHANNELS 3 Zrotation Yrotation Xrotation
		JOINT left_knee
		{
			OFFSET 0.054695 -0.378753 -0.009396
			CHANNELS 3 Zrotation Yrotation Xrotation
			JOINT left_ankle
			{
				OFFSET -0.043453 -0.403059 -0.031876
				CHANNELS 3 Zrotation Yrotation Xrotation
				JOINT left_foot
				{
					OFFSET 0.047257 -0.057997 0.118216
					CHANNELS 3 Zrotation Yrotation Xrotation
					End Site
					{
						OFFSET 0.000000 0.000000 0.000000
					}
				}
			}
		}
	}
	JOINT right_hip
	{
		OFFSET -0.063267 -0.103908 -0.021250
		CHANNELS 3 Zrotation Yrotation Xrotation
		JOINT right_knee
		{
			OFFSET -0.044210 -0.362380 -0.016824
			CHANNELS 3 Zrotation Yrotation Xrotation
			JOINT right_ankle
			{
				OFFSET 0.015417 -0.410728 -0.020192
				CHANNELS 3 Zrotation Yrotation Xrotation
				JOINT right_foot
				{
					OFFSET -0.038812 -0.058328 0.119049
					CHANNELS 3 Zrotation Yrotation Xrotation
					End Site
					{
						OFFSET 0.000000 0.000000 0.000000
					}
				}
			}
		}
	}
	JOINT spine_1
	{
		OFFSET -0.002763 0.109891 -0.027618
		CHANNELS 3 Zrotation Yrotation Xrotation
		JOINT spine_2
		{
			OFFSET 0.009448 0.131853 -0.005940
			CHANNELS 3 Zrotation Yrotation Xrotation
			JOINT spine_3
			{
				OFFSET -0.011330 0.052235 0.028447
				CHANNELS 3 Zrotation Yrotation Xrotation
				JOINT neck
				{
					OFFSET -0.012164 0.165167 -0.031615
					CHANNELS 3 Zrotation Yrotation Xrotation
					JOINT head
					{
						OFFSET 0.024783 0.160452 0.020737
						CHANNELS 3 Zrotation Yrotation Xrotation
						End Site
						{
							OFFSET 0.000000 0.000000 0.000000
						}
					}
				}
				JOINT left_collar
				{
					OFFSET 0.046364 0.084944 -0.007220
					CHANNELS 3 Zrotation Yrotation Xrotation
					JOINT left_shoulder
					{
						OFFSET 0.119239 0.057728 -0.015461
						CHANNELS 3 Zrotation Yrotation Xrotation
						JOINT left_elbow
						{
							OFFSET 0.254123 -0.072151 -0.042459
							CHANNELS 3 Zrotation Yrotation Xrotation
							JOINT left_wrist
							{
								OFFSET 0.251987 0.023221 -0.002472
								CHANNELS 3 Zrotation Yrotation Xrotation
								JOINT left_index_1
								{
									OFFSET 0.101902 -0.008688 0.019351
									CHANNELS 3 Zrotation Yrotation Xrotation
									JOINT left_index_2
									{
										OFFSET 0.030149 -0.011154 0.001151
										CHANNELS 3 Zrotation Yrotation Xrotation
										JOINT left_index_3
										{
											OFFSET 0.006504 -0.021577 -0.002433
											CHANNELS 3 Zrotation Yrotation Xrotation
											End Site
											{
												OFFSET 0.000000 0.000000 0.000000
											}
										}
									}
								}
								JOINT left_middle_1
								{
									OFFSET 0.109398 -0.006328 -0.003981
									CHANNELS 3 Zrotation Yrotation Xrotation
									JOINT left_middle_2
									{
										OFFSET 0.026472 -0.015218 -0.004641
										CHANNELS 3 Zrotation Yrotation Xrotation
										JOINT left_middle_3
										{
											OFFSET 0.005022 -0.023347 -0.001911
											CHANNELS 3 Zrotation Yrotation Xrotation
											End Site
											{
												OFFSET 0.000000 0.000000 0.000000
											}
										}
									}
								}
								JOINT left_pinky_1
								{
									OFFSET 0.084047 -0.014539 -0.043750
									CHANNELS 3 Zrotation Yrotation Xrotation
									JOINT left_pinky_2
									{
										OFFSET 0.012124 -0.014448 -0.005375
										CHANNELS 3 Zrotation Yrotation Xrotation
										JOINT left_pinky_3
										{
											OFFSET 0.003798 -0.018853 0.000167
											CHANNELS 3 Zrotation Yrotation Xrotation
											End Site
											{
												OFFSET 0.000000 0.000000 0.000000
											}
										}
									}
								}
								JOINT left_ring_1
								{
									OFFSET 0.097444 -0.009268 -0.027345
									CHANNELS 3 Zrotation Yrotation Xrotation
									JOINT left_ring_2
									{
										OFFSET 0.023561 -0.016057 -0.001895
										CHANNELS 3 Zrotation Yrotation Xrotation
										JOINT left_ring_3
										{
											OFFSET 0.004257 -0.023548 0.000814
											CHANNELS 3 Zrotation Yrotation Xrotation
											End Site
											{
												OFFSET 0.000000 0.000000 0.000000
											}
										}
									}
								}
								JOINT left_thumb_1
								{
									OFFSET 0.040636 -0.017977 0.025611
									CHANNELS 3 Zrotation Yrotation Xrotation
									JOINT left_thumb_2
									{
										OFFSET 0.021637 -0.017639 0.011623
										CHANNELS 3 Zrotation Yrotation Xrotation
										JOINT left_thumb_3
										{
											OFFSET 0.024002 -0.008356 0.006548
											CHANNELS 3 Zrotation Yrotation Xrotation
											End Site
											{
												OFFSET 0.000000 0.000000 0.000000
											}
										}
									}
								}
							}
						}
					}
				}
				JOINT right_collar
				{
					OFFSET -0.047695 0.084339 -0.013400
					CHANNELS 3 Zrotation Yrotation Xrotation
					JOINT right_shoulder
					{
						OFFSET -0.102578 0.053524 -0.012669
						CHANNELS 3 Zrotation Yrotation Xrotation
						JOINT right_elbow
						{
							OFFSET -0.271150 -0.036492 -0.026467
							CHANNELS 3 Zrotation Yrotation Xrotation
							JOINT right_wrist
							{
								OFFSET -0.249267 -0.004533 -0.015325
								CHANNELS 3 Zrotation Yrotation Xrotation
								JOINT right_index_1
								{
									OFFSET -0.099881 -0.011783 0.019600
									CHANNELS 3 Zrotation Yrotation Xrotation
									JOINT right_index_2
									{
										OFFSET -0.030148 -0.011154 0.001151
										CHANNELS 3 Zrotation Yrotation Xrotation
										JOINT right_index_3
										{
											OFFSET -0.006505 -0.021577 -0.002432
											CHANNELS 3 Zrotation Yrotation Xrotation
											End Site
											{
												OFFSET 0.000000 0.000000 0.000000
											}
										}
									}
								}
								JOINT right_middle_1
								{
									OFFSET -0.107376 -0.009422 -0.003734
									CHANNELS 3 Zrotation Yrotation Xrotation
									JOINT right_middle_2
									{
										OFFSET -0.026472 -0.015218 -0.004641
										CHANNELS 3 Zrotation Yrotation Xrotation
										JOINT right_middle_3
										{
											OFFSET -0.005022 -0.023347 -0.001911
											CHANNELS 3 Zrotation Yrotation Xrotation
											End Site
											{
												OFFSET 0.000000 0.000000 0.000000
											}
										}
									}
								}
								JOINT right_pinky_1
								{
									OFFSET -0.082027 -0.017634 -0.043503
									CHANNELS 3 Zrotation Yrotation Xrotation
									JOINT right_pinky_2
									{
										OFFSET -0.012123 -0.014448 -0.005374
										CHANNELS 3 Zrotation Yrotation Xrotation
										JOINT right_pinky_3
										{
											OFFSET -0.003798 -0.018852 0.000167
											CHANNELS 3 Zrotation Yrotation Xrotation
											End Site
											{
												OFFSET 0.000000 0.000000 0.000000
											}
										}
									}
								}
								JOINT right_ring_1
								{
									OFFSET -0.095423 -0.012362 -0.027099
									CHANNELS 3 Zrotation Yrotation Xrotation
									JOINT right_ring_2
									{
										OFFSET -0.023561 -0.016057 -0.001895
										CHANNELS 3 Zrotation Yrotation Xrotation
										JOINT right_ring_3
										{
											OFFSET -0.004257 -0.023548 0.000816
											CHANNELS 3 Zrotation Yrotation Xrotation
											End Site
											{
												OFFSET 0.000000 0.000000 0.000000
											}
										}
									}
								}
								JOINT right_thumb_1
								{
									OFFSET -0.038613 -0.021074 0.025861
									CHANNELS 3 Zrotation Yrotation Xrotation
									JOINT right_thumb_2
									{
										OFFSET -0.021636 -0.017639 0.011623
										CHANNELS 3 Zrotation Yrotation Xrotation
										JOINT right_thumb_3
										{
											OFFSET -0.024004 -0.008353 0.006547
											CHANNELS 3 Zrotation Yrotation Xrotation
											End Site
											{
												OFFSET 0.000000 0.000000 0.000000
											}
										}
									}
								}
							}
						}
					}
				}
			}
		}
	}
}
MOTION
Frames: 5
Frame Time: 0.050000
0.011598 0.922083 -0.020531 3.036073 1.205270 -13.057594 0.288737 1.785921 12.441364 -4.962284 -0.499311 13.118924 6.806652 -0.204205 -17.811924 0.000000 0.000000 0.000000 -10.590071 -0.331394 19.238725 11.248674 -0.382351 -3.981054 -3.185577 -2.037628 -7.317068 0.000000 0.000000 0.000000 -6.158498 -0.547622 5.068176 -4.715818 1.273853 -5.192679 10.457476 -0.826010 19.611084 2.381589 -0.131529 -1.607007 0.000000 0.000000 0.000000 -4.603061 -3.286897 1.290466 -56.701266 5.264636 -10.868803 -22.269436 -39.541453 12.350613 -0.666260 5.190397 8.350077 -11.226462 0.919372 0.480752 23.373697 -3.049582 -1.066247 0.000000 0.000000 0.000000 -3.330533 -6.129380 -3.973272 0.416626 -1.755690 -8.412764 0.000000 0.000000 0.000000 25.588677 -13.211348 -8.182806 -21.491396 -9.879090 -27.159508 0.000000 0.000000 0.000000 0.455858 -4.659355 -3.074173 -13.944905 -5.679861 -19.814939 0.000000 0.000000 0.000000 24.251149 24.432056 18.899791 -18.940512 -11.714054 2.963877 0.000000 0.000000 0.000000 2.752471 2.148394 0.870053 48.753806 -0.918460 -6.193095 25.980470 40.086317 7.552060 13.639339 -0.329222 19.263155 14.237950 -4.002199 0.984622 -19.207372 1.879929 6.138093 0.000000 0.000000 0.000000 11.100709 4.762715 -4.642665 -6.159226 0.671102 0.966808 0.000000 0.000000 0.000000 -10.762949 17.760505 -15.523062 10.062763 0.133297 -5.601424 0.000000 0.000000 0.000000 10.558998 5.305799 -4.114809 0.191380 0.984343 -11.099083 0.000000 0.000000 0.000000 -11.637978 -30.344931 30.037103 7.192505 14.272662 -1.744835 0.000000 0.000000 0.000000 
0.009478 0.935138 0.015106 3.541907 4.310508 -16.172004 -1.032967 1.364189 8.968789 -2.787364 -2.135233 23.819592 4.461180 1.313629 -9.388329 0.000000 0.000000 0.000000 -6.230536 -1.166232 16.743496 3.012923 -0.109308 11.406440 -5.151676 -6.633921 -8.165395 0.000000 0.000000 0.000000 -10.396575 -0.657363 10.449976 -4.874211 0.720517 -8.100753 13.638508 -0.218924 24.652267 3.795753 0.093640 -4.055674 0.000000 0.000000 0.000000 -4.831604 -3.823820 1.447609 -57.788266 -6.426515 -9.313395 -16.971088 -31.814102 8.191269 -13.904222 6.057427 14.086403 -21.683434 3.535002 0.518644 -33.595479 2.258306 -6.082848 0.000000 0.000000 0.000000 -27.941242 -5.616007 -8.208491 -34.860937 -3.393270 -15.307741 0.000000 0.000000 0.000000 -50.422820 -30.540101 -38.751169 5.651304 3.002713 16.103687 0.000000 0.000000 0.000000 -39.972250 -14.614646 -10.101930 -25.629071 -6.116318 -15.296868 0.000000 0.000000 0.000000 1.084641 31.089442 33.743902 28.940723 -9.559967 -16.172774 0.000000 0.000000 0.000000 4.372970 6.779982 3.472744 48.983658 5.608423 -4.082389 19.841200 39.019052 5.651417 27.399038 -1.889590 26.359909 11.476394 -19.129156 7.186571 6.062724 -0.107246 -4.790625 0.000000 0.000000 0.000000 19.403129 0.103435 -4.487639 15.953072 0.151176 -13.502274 0.000000 0.000000 0.000000 -9.777660 31.988916 -37.076470 11.533693 -1.074781 9.412824 0.000000 0.000000 0.000000 17.051901 17.710560 -11.144665 14.009430 -1.689413 -3.844176 0.000000 0.000000 0.000000 -5.921805 -39.116530 40.194492 -7.339894 15.937767 -9.012512 0.000000 0.000000 0.000000 
0.000616 0.926596 0.025665 3.666569 4.183121 -14.857144 0.266639 1.124917 8.028901 -2.432143 -1.882713 20.765836 2.942799 0.226421 -6.743829 0.000000 0.000000 0.000000 -4.805238 -0.882466 11.152227 2.074394 0.128105 19.949969 -6.531754 -8.454094 -11.179083 0.000000 0.000000 0.000000 -7.270994 -0.662412 16.374961 -5.472094 0.584098 -9.747868 10.036988 0.440422 24.513465 6.265983 0.325112 -6.869822 0.000000 0.000000 0.000000 -2.976741 -6.787387 3.086551 -60.306102 -17.224627 -7.003570 -10.289725 -25.962614 4.992579 -23.189536 11.578208 19.819517 2.901517 37.696276 35.379972 -85.551454 0.313251 -15.369622 0.000000 0.000000 0.000000 -75.149680 32.464130 -14.903626 -36.503234 -23.788961 -42.716403 0.000000 0.000000 0.000000 -99.544715 14.257258 -46.079253 14.461599 3.789425 -8.116429 0.000000 0.000000 0.000000 -83.117747 -0.649652 -19.805313 0.018081 -3.255763 -18.738941 0.000000 0.000000 0.000000 -17.040466 44.954873 45.040982 70.925499 13.922226 -18.183115 0.000000 0.000000 0.000000 0.187347 6.693973 3.422412 56.597214 15.059936 -0.571474 17.515042 31.736033 3.800404 28.071165 2.241548 36.146015 14.317498 -38.358487 16.450006 51.153945 12.418339 -23.320724 0.000000 0.000000 0.000000 36.641823 -14.935552 -4.444675 54.153001 10.674654 -35.391815 0.000000 0.000000 0.000000 -34.964631 61.213633 -89.244822 5.480572 9.899914 15.578686 0.000000 0.000000 0.000000 32.418173 38.036406 -15.866429 29.691858 -1.635951 -18.152045 0.000000 0.000000 0.000000 2.935313 -40.527753 39.210897 -26.638865 9.041996 -16.311219 0.000000 0.000000 0.000000 
0.006151 0.921761 0.004547 2.799025 2.785869 -10.505133 2.775486 0.646017 5.648096 -5.291393 -0.509115 13.385522 2.442085 -1.001293 -6.973084 0.000000 0.000000 0.000000 -4.599599 -0.706066 9.601885 2.802725 -0.049154 11.418791 -6.489039 -7.118585 -13.040044 0.000000 0.000000 0.000000 -0.994088 -0.638925 10.010539 -6.240652 0.278351 -12.044581 6.752590 -1.471808 27.273292 5.965464 -0.189978 -4.534543 0.000000 0.000000 0.000000 -9.352400 -2.168750 0.277024 -56.864805 -14.988909 -7.176764 -9.020704 -25.513859 4.674829 -20.208333 7.039150 21.589659 -21.045750 24.482662 7.567797 -53.941748 16.516061 -1.834945 0.000000 0.000000 0.000000 -39.911669 19.161537 -4.782385 -46.520905 2.635194 -10.299673 0.000000 0.000000 0.000000 -70.970326 6.515244 -39.204989 3.426400 6.864764 10.364447 0.000000 0.000000 0.000000 -57.257343 4.478983 -11.577898 -22.676099 -1.655796 -2.787887 0.000000 0.000000 0.000000 -2.606152 33.986209 36.386239 31.685695 -8.634778 -17.966511 0.000000 0.000000 0.000000 0.165028 8.237021 4.254945 55.595261 17.279943 -0.453541 18.204911 30.591231 3.625610 11.071706 1.915211 25.119639 24.485243 -12.341473 2.247837 32.424092 -10.445415 0.071310 0.000000 0.000000 0.000000 33.316764 -0.472072 -7.357650 34.705616 -2.178691 -11.391134 0.000000 0.000000 0.000000 21.925488 55.636631 -38.007363 11.794078 0.808489 2.391565 0.000000 0.000000 0.000000 35.871577 22.272262 -10.393537 29.132050 0.701667 -11.879830 0.000000 0.000000 0.000000 -3.086876 -40.796714 41.307489 -16.897766 16.927071 -14.242105 0.000000 0.000000 0.000000 
0.010332 0.912654 0.000587 1.462799 1.543305 -12.308914 5.249115 0.528780 5.676058 -7.766553 -0.153673 16.724081 4.012360 0.176700 -9.834391 0.000000 0.000000 0.000000 -4.887493 -0.690998 9.981751 5.028648 -0.398451 13.678049 -6.864922 -5.952501 -15.932593 0.000000 0.000000 0.000000 0.806943 -0.798679 11.562145 -7.344803 0.520378 -12.714672 7.525574 -1.788487 27.482977 2.851908 0.288063 -4.701150 0.000000 0.000000 0.000000 -5.863222 -5.564867 2.514985 -59.850970 -12.140398 -7.769941 -12.838482 -29.567960 6.546044 -7.401850 3.509070 16.085357 -24.606728 9.720029 1.764642 -28.820482 16.221649 12.195842 0.000000 0.000000 0.000000 -28.932306 4.229969 -4.684757 -45.985503 5.173371 -4.497771 0.000000 0.000000 0.000000 -24.109331 -5.137754 -14.334125 -53.318016 -9.355885 -13.777159 0.000000 0.000000 0.000000 -33.230216 1.895385 -4.107471 -51.468025 -4.399217 -8.929971 0.000000 0.000000 0.000000 6.571201 37.972439 39.950302 12.930351 -19.586165 -12.904390 0.000000 0.000000 0.000000 0.911581 6.332650 3.241158 55.013212 15.089184 -1.571725 21.053653 34.751895 5.088781 9.634777 -2.011209 27.473512 16.888361 -9.690833 2.447832 30.934653 -8.415129 -1.719109 0.000000 0.000000 0.000000 20.239699 3.110715 -5.616679 50.840673 0.177107 -18.873085 0.000000 0.000000 0.000000 -31.268093 60.658573 -59.105842 23.626311 0.941630 -33.211807 0.000000 0.000000 0.000000 20.730465 21.625806 -10.371809 45.954553 5.948398 -24.858214 0.000000 0.000000 0.000000 -6.515127 -37.147854 38.797503 -17.450742 18.601950 -15.471952 0.000000 0.000000 0.000000 
